<?xml version="1.0" standalone="no"?>
<!DOCTYPE svg PUBLIC "-//W3C//DTD SVG 20010904//EN"
 "http://www.w3.org/TR/2001/REC-SVG-20010904/DTD/svg10.dtd">
<svg version="1.0" xmlns="http://www.w3.org/2000/svg"
 width="1200.000000pt" height="188.000000pt" viewBox="0 0 1200.000000 188.000000"
 preserveAspectRatio="xMidYMid meet">

<g transform="translate(0.000000,188.000000) scale(0.100000,-0.100000)"
fill="currentColor" stroke="currentColor">
<path d="M10607 1654 c-27 -14 -47 -31 -44 -37 2 -7 77 -347 167 -757 89 -410
165 -747 167 -749 2 -3 28 7 59 22 42 21 54 32 50 45 -3 9 -78 351 -167 760
-92 419 -167 742 -173 742 -6 -1 -33 -12 -59 -26z"/>
<path d="M957 1390 c-98 -25 -182 -101 -213 -193 -27 -78 -23 -190 8 -258 33
-73 66 -109 130 -144 50 -28 60 -30 163 -30 95 0 116 3 152 23 57 30 105 80
134 138 21 42 24 63 24 154 0 115 -12 152 -76 224 -64 74 -213 113 -322 86z
m210 -103 c136 -94 128 -346 -14 -429 -79 -47 -193 -31 -259 36 -116 115 -89
336 48 405 63 32 169 27 225 -12z"/>
<path d="M2370 1387 c-93 -26 -154 -79 -196 -170 -24 -54 -26 -67 -22 -155 6
-135 49 -212 150 -268 50 -27 60 -29 163 -29 103 0 113 2 163 30 103 57 144
129 150 266 4 89 2 102 -23 158 -31 69 -85 123 -152 153 -56 25 -173 32 -233
15z m219 -100 c85 -57 122 -205 78 -319 -53 -138 -233 -182 -344 -85 -121 106
-99 346 38 416 64 32 169 27 228 -12z"/>
<path d="M11235 1388 c-3 -7 -13 -39 -24 -70 l-19 -57 248 -177 c137 -98 247
-181 244 -186 -3 -4 -113 -85 -244 -179 -133 -95 -240 -179 -240 -187 0 -30
34 -122 44 -121 6 0 137 96 291 212 l280 212 3 66 3 66 -135 101 c-362 272
-447 332 -451 320z"/>
<path d="M140 1081 l0 -312 148 3 c130 3 152 6 194 26 60 30 90 71 96 133 6
63 -22 109 -83 139 l-45 22 31 21 c51 35 72 71 72 122 0 58 -24 92 -87 124
-41 21 -66 24 -187 29 l-139 5 0 -312z m265 215 c92 -39 62 -142 -48 -166 -29
-7 -68 -10 -87 -8 l-35 3 -3 93 -3 92 71 0 c39 0 86 -6 105 -14z m-13 -257
c59 -16 92 -50 92 -92 0 -72 -62 -107 -186 -107 l-68 0 0 105 0 105 63 0 c34
0 79 -5 99 -11z"/>
<path d="M1548 1385 c-5 -5 -8 -145 -8 -312 l0 -303 50 0 50 0 0 120 0 120 34
0 c32 0 43 -10 137 -120 l103 -120 59 0 59 0 -19 24 c-10 14 -59 71 -109 128
l-92 104 54 28 c74 39 109 96 102 167 -7 65 -31 97 -100 132 -50 25 -69 29
-184 34 -71 3 -132 2 -136 -2z m244 -85 c74 -21 101 -101 54 -157 -29 -35 -83
-53 -155 -53 l-51 0 0 110 0 110 58 0 c31 0 74 -5 94 -10z"/>
<path d="M2967 1383 c-4 -3 -7 -143 -7 -310 l0 -303 50 0 50 0 2 230 3 230
174 -230 174 -230 48 0 49 0 0 311 0 310 -47 -3 -48 -3 -5 -229 -5 -229 -175
232 -175 231 -41 0 c-22 0 -44 -3 -47 -7z"/>
<path d="M3730 1080 l0 -310 45 0 45 0 0 310 0 310 -45 0 -45 0 0 -310z"/>
<path d="M4040 1080 l0 -310 50 0 50 0 0 231 0 231 173 -228 174 -229 51 -3
52 -3 -2 308 -3 308 -47 3 -48 3 0 -237 0 -236 -177 235 -178 236 -47 1 -48 0
0 -310z"/>
<path d="M5007 1383 c-4 -7 -240 -564 -254 -600 -4 -9 9 -13 45 -13 l50 0 28
70 27 70 151 0 152 0 24 -66 c14 -37 30 -68 36 -71 7 -2 30 -3 52 -1 l41 3
-128 305 -129 305 -45 3 c-25 2 -47 -1 -50 -5z m103 -235 c29 -73 54 -139 57
-145 4 -10 -22 -13 -111 -13 -64 0 -116 2 -116 4 0 3 28 76 101 264 5 12 11
22 13 22 3 0 28 -60 56 -132z"/>
<path d="M5800 1080 l0 -310 45 0 45 0 0 140 c0 77 4 140 8 140 5 0 67 -63
138 -139 l129 -139 65 -1 64 -1 -59 62 c-33 35 -100 104 -149 155 l-89 91 136
148 c76 82 137 152 137 156 0 5 -24 8 -54 8 l-53 0 -134 -147 -134 -147 -3
147 -3 147 -44 0 -45 0 0 -310z"/>
<path d="M6577 1233 c-36 -87 -95 -227 -131 -310 l-64 -153 51 0 52 0 26 68
26 67 151 3 150 3 28 -71 27 -70 49 0 c26 0 48 3 48 7 0 4 -57 144 -127 310
l-128 303 -46 0 -46 0 -66 -157z m174 -98 l56 -145 -118 0 -117 0 40 103 c22
56 47 121 56 145 9 23 19 42 22 42 3 0 30 -65 61 -145z"/>
<path d="M7160 1081 l0 -311 45 0 45 0 0 120 0 120 38 0 c35 -1 42 -7 137
-120 l100 -119 64 0 63 -1 -68 78 c-38 42 -88 99 -112 126 l-43 50 38 19 c82
41 113 88 113 171 0 50 -4 60 -35 95 -50 55 -104 71 -257 78 l-128 6 0 -312z
m260 213 c40 -16 70 -54 70 -89 0 -65 -76 -114 -177 -115 l-63 0 0 110 0 110
65 0 c36 0 82 -7 105 -16z"/>
<path d="M7800 1080 l0 -310 45 0 45 0 0 310 0 310 -45 0 -45 0 0 -310z"/>
<path d="M8117 1383 c-4 -3 -7 -143 -7 -310 l0 -303 50 0 50 0 2 230 3 230
173 -230 172 -230 50 0 50 0 0 311 0 310 -47 -3 -48 -3 -5 -230 -5 -230 -175
233 -175 232 -41 0 c-22 0 -44 -3 -47 -7z"/>
<path d="M9071 1368 c-5 -13 -63 -151 -130 -308 l-120 -285 41 -3 c22 -2 45
-1 52 1 6 3 22 34 36 71 l24 66 151 0 150 0 29 -70 28 -70 49 0 c27 0 49 2 49
4 0 1 -58 140 -128 307 l-128 304 -47 3 c-41 3 -48 0 -56 -20z m118 -236 c28
-74 51 -135 51 -138 0 -2 -52 -4 -116 -4 -89 0 -115 3 -111 13 3 6 28 72 57
145 29 74 56 130 60 125 4 -4 30 -68 59 -141z"/>
<path d="M10038 1182 l-277 -207 -1 -72 0 -73 280 -210 c154 -115 283 -210
288 -210 4 0 17 29 29 65 l21 65 -36 28 c-21 16 -122 90 -227 164 -104 75
-200 144 -212 154 l-22 19 249 178 c138 98 248 182 246 185 -2 4 -11 33 -20
65 -9 31 -22 57 -29 57 -7 0 -137 -94 -289 -208z"/>
<path d="M8330 375 c0 -218 1 -225 20 -225 19 0 20 7 20 115 l0 115 33 20 c47
29 100 26 126 -6 18 -23 21 -41 21 -135 l0 -109 25 0 25 0 0 103 c0 120 -16
162 -70 190 -38 19 -89 16 -127 -9 -12 -8 -25 -14 -28 -14 -3 0 -5 41 -5 90 0
83 -1 90 -20 90 -19 0 -20 -7 -20 -225z"/>
<path d="M8980 585 c0 -8 -7 -15 -15 -15 -8 0 -15 -7 -15 -15 0 -8 -7 -15 -15
-15 -8 0 -15 -7 -15 -15 0 -8 -7 -15 -15 -15 -12 0 -15 -14 -15 -70 0 -56 3
-70 15 -70 8 0 15 -7 15 -15 0 -8 7 -15 15 -15 8 0 15 -7 15 -15 0 -8 7 -15
15 -15 8 0 15 -7 15 -15 0 -8 7 -15 15 -15 8 0 15 -7 15 -15 0 -8 7 -15 15
-15 8 0 15 -7 15 -15 0 -8 7 -15 15 -15 8 0 15 -7 15 -15 0 -8 7 -15 15 -15 8
0 15 -7 15 -15 0 -8 7 -15 15 -15 8 0 15 -7 15 -15 0 -8 5 -15 10 -15 6 0 10
7 10 15 0 8 7 15 15 15 8 0 15 7 15 15 0 8 7 15 15 15 8 0 15 7 15 15 0 8 7
15 15 15 8 0 15 7 15 15 0 8 7 15 15 15 8 0 15 7 15 15 0 8 7 15 15 15 8 0 15
7 15 15 0 8 7 15 15 15 8 0 15 7 15 15 0 8 7 15 15 15 8 0 15 7 15 15 0 8 7
15 15 15 12 0 15 14 15 70 0 56 -3 70 -15 70 -8 0 -15 7 -15 15 0 8 -7 15 -15
15 -8 0 -15 7 -15 15 0 8 -7 15 -15 15 -8 0 -15 7 -15 15 0 11 -12 15 -45 15
-33 0 -45 -4 -45 -15 0 -8 -7 -15 -15 -15 -8 0 -15 -7 -15 -15 0 -8 -7 -15
-15 -15 -8 0 -15 -7 -15 -15 0 -8 -4 -15 -10 -15 -5 0 -10 7 -10 15 0 8 -7 15
-15 15 -8 0 -15 7 -15 15 0 8 -7 15 -15 15 -8 0 -15 7 -15 15 0 11 -12 15 -45
15 -33 0 -45 -4 -45 -15z m60 -60 c0 -8 -7 -15 -15 -15 -8 0 -15 -7 -15 -15 0
-8 -7 -15 -15 -15 -8 0 -15 -7 -15 -15 0 -8 -7 -15 -15 -15 -8 0 -15 7 -15 15
0 8 7 15 15 15 8 0 15 7 15 15 0 8 7 15 15 15 8 0 15 7 15 15 0 8 7 15 15 15
8 0 15 -7 15 -15z"/>
<path d="M7886 554 c-10 -26 19 -52 42 -38 9 6 17 20 17 30 0 26 -50 32 -59 8z"/>
<path d="M8080 490 c0 -38 -2 -40 -30 -40 -20 0 -30 -5 -30 -15 0 -10 10 -15
30 -15 l30 0 0 -108 c0 -118 10 -145 58 -163 33 -13 102 -2 102 16 0 9 -16 15
-47 17 -64 4 -74 25 -71 143 l3 90 58 3 c41 2 57 7 57 17 0 10 -16 15 -57 17
l-58 3 -3 38 c-3 29 -7 37 -23 37 -16 0 -19 -7 -19 -40z"/>
<path d="M7330 446 c0 -3 58 -173 90 -263 9 -24 18 -33 34 -33 18 0 26 13 50
78 16 42 38 101 49 131 l20 54 24 -64 c74 -199 74 -199 96 -199 19 0 28 19 74
151 l51 150 -25 -3 c-24 -3 -29 -13 -61 -120 -20 -65 -38 -115 -41 -112 -3 3
-24 56 -47 117 -39 105 -43 112 -71 115 -28 3 -29 1 -72 -118 -24 -66 -45
-120 -47 -120 -2 0 -20 54 -40 120 -34 108 -40 120 -61 120 -13 0 -23 -2 -23
-4z"/>
<path d="M7890 300 l0 -150 25 0 25 0 0 150 0 150 -25 0 -25 0 0 -150z"/>
</g>
</svg>
