<?xml version="1.0" standalone="no"?>
<!DOCTYPE svg PUBLIC "-//W3C//DTD SVG 20010904//EN"
 "http://www.w3.org/TR/2001/REC-SVG-20010904/DTD/svg10.dtd">
<svg version="1.0" xmlns="http://www.w3.org/2000/svg"
 width="512.000000pt" height="512.000000pt" viewBox="0 0 512.000000 512.000000"
 preserveAspectRatio="xMidYMid meet">

<g transform="translate(0.000000,512.000000) scale(0.100000,-0.100000)"
fill="#171718" stroke="#171718">
<path d="M1980 4793 c-947 -94 -1659 -875 -1660 -1820 -1 -853 610 -1604 1448
-1779 305 -63 634 -47 931 47 200 64 449 202 608 336 l65 55 657 -656 c601
-601 659 -656 689 -656 44 0 82 38 82 82 0 30 -55 88 -656 689 l-656 657 57
68 c484 570 554 1428 169 2081 -331 563 -940 910 -1584 901 -63 -1 -131 -3
-150 -5z m338 -164 c719 -78 1300 -608 1454 -1325 20 -96 23 -135 23 -334 -1
-211 -2 -232 -29 -344 -50 -215 -120 -381 -233 -556 -239 -368 -611 -622
-1060 -722 -85 -19 -128 -22 -328 -22 -201 -1 -242 2 -330 21 -224 50 -433
138 -604 256 -618 424 -879 1191 -645 1896 246 740 981 1214 1752 1130z"/>
<path d="M2089 3721 l-24 -19 -3 -321 -3 -320 -320 -3 -321 -3 -19 -24 c-25
-31 -25 -85 1 -111 19 -19 33 -20 340 -20 l320 0 0 -310 c0 -253 3 -316 15
-339 23 -46 74 -55 119 -20 l26 20 2 322 3 322 322 3 322 2 20 26 c31 39 27
77 -10 108 l-31 26 -314 0 -314 0 0 318 0 319 -23 21 c-29 27 -77 28 -108 3z"/>
</g>
</svg>
